<svg xmlns="http://www.w3.org/2000/svg" width="1400" height="760" viewBox="0 0 1400 760">
  <defs>
    <marker id="arrow" markerWidth="10" markerHeight="10" refX="9" refY="5" orient="auto" markerUnits="strokeWidth">
      <path d="M 0 0 L 10 5 L 0 10 z" fill="#444"/>
    </marker>
    <style>
      .box { rx: 14; ry: 14; stroke-width: 2; }
      .src { fill: #dae8fc; stroke: #6c8ebf; }
      .step { fill: #fff2cc; stroke: #d6b656; }
      .proc { fill: #d5e8d4; stroke: #82b366; }
      .out { fill: #e1d5e7; stroke: #9673a6; }
      .final { fill: #f5f5f5; stroke: #666666; }
      text { font-family: Arial, sans-serif; font-size: 22px; fill: #222; text-anchor: middle; dominant-baseline: middle; }
      .bold { font-weight: 700; }
      .edge { stroke: #444; stroke-width: 2.5; fill: none; marker-end: url(#arrow); }
    </style>
  </defs>

  <rect class="box src" x="40" y="70" width="190" height="56"/><text x="135" y="98">SAP costi</text>
  <rect class="box src" x="40" y="150" width="190" height="56"/><text x="135" y="178">SAP ricavi</text>
  <rect class="box src" x="40" y="230" width="190" height="56"/><text x="135" y="258">SAP fatturato</text>
  <rect class="box src" x="40" y="310" width="190" height="56"/><text x="135" y="338">WBS</text>
  <rect class="box src" x="40" y="390" width="190" height="56"/><text x="135" y="418">Team e PM</text>
  <rect class="box src" x="40" y="470" width="190" height="56"/><text x="135" y="498">Gruppo cliente</text>
  <rect class="box src" x="40" y="550" width="190" height="56"/><text x="135" y="578">WBS Category</text>

  <rect class="box step" x="380" y="280" width="240" height="72"/><text x="500" y="316">PQ Ricavi</text>
  <rect class="box proc" x="730" y="210" width="240" height="60"/><text x="850" y="240">PQ Costi ribaltati</text>
  <rect class="box proc" x="730" y="360" width="240" height="60"/><text x="850" y="390">E-Economics plus</text>
  <rect class="box out" x="1080" y="280" width="240" height="72"/><text class="bold" x="1200" y="316">Output All A+B</text>
  <rect class="box final" x="1080" y="470" width="240" height="72"/><text x="1200" y="506">Power BI Economics pages</text>

  <path class="edge" d="M230 98 C300 98, 300 300, 380 300"/>
  <path class="edge" d="M230 178 C300 178, 300 308, 380 308"/>
  <path class="edge" d="M230 258 C300 258, 300 316, 380 316"/>
  <path class="edge" d="M230 338 C300 338, 300 324, 380 324"/>
  <path class="edge" d="M230 418 C300 418, 300 332, 380 332"/>
  <path class="edge" d="M230 498 C300 498, 300 340, 380 340"/>
  <path class="edge" d="M230 578 C300 578, 300 348, 380 348"/>

  <path class="edge" d="M620 300 C675 300, 675 230, 730 230"/>
  <path class="edge" d="M620 332 C675 332, 675 390, 730 390"/>
  <path class="edge" d="M970 240 C1025 240, 1025 390, 730 390"/>
  <path class="edge" d="M970 390 H1080"/>
  <path class="edge" d="M1200 352 V470"/>
</svg>
