<svg xmlns="http://www.w3.org/2000/svg" width="1600" height="860" viewBox="0 0 1600 860">
  <defs>
    <marker id="arrow" markerWidth="10" markerHeight="10" refX="9" refY="5" orient="auto" markerUnits="strokeWidth">
      <path d="M 0 0 L 10 5 L 0 10 z" fill="#444"/>
    </marker>
    <style>
      .box { rx: 14; ry: 14; stroke-width: 2; }
      .src { fill: #dae8fc; stroke: #6c8ebf; }
      .pq { fill: #fff2cc; stroke: #d6b656; }
      .mid { fill: #d5e8d4; stroke: #82b366; }
      .down { fill: #f8cecc; stroke: #b85450; }
      .final { fill: #e1d5e7; stroke: #9673a6; }
      text { font-family: Arial, sans-serif; font-size: 22px; fill: #222; text-anchor: middle; dominant-baseline: middle; }
      .bold { font-weight: 700; }
      .edge { stroke: #444; stroke-width: 2.5; fill: none; marker-end: url(#arrow); }
    </style>
  </defs>

  <rect class="box src" x="40" y="330" width="190" height="64"/>
  <text x="135" y="362">Sorgenti</text>

  <rect class="box pq" x="300" y="80" width="260" height="64"/>
  <text x="430" y="112">Power Query Output all - Def.xlsx</text>

  <rect class="box pq" x="300" y="210" width="260" height="64"/>
  <text x="430" y="242">PQ Ricavi.xlsx</text>

  <rect class="box pq" x="300" y="340" width="260" height="64"/>
  <text x="430" y="372">PQ Costi ribaltati.xlsx</text>

  <rect class="box pq" x="300" y="470" width="260" height="64"/>
  <text x="430" y="502">Budget.xlsx</text>

  <rect class="box mid" x="650" y="230" width="260" height="74"/>
  <text class="bold" x="780" y="267">Output All A+B.xlsx</text>

  <rect class="box down" x="1000" y="60" width="260" height="60"/>
  <text x="1130" y="90">PQ Report ITOPS.xlsx</text>

  <rect class="box down" x="1000" y="150" width="260" height="60"/>
  <text x="1130" y="180">Power Query Base Dati AM.xlsx</text>

  <rect class="box down" x="1000" y="240" width="260" height="60"/>
  <text x="1130" y="270">Power Query Analisi Servizi.xlsx</text>

  <rect class="box down" x="1000" y="330" width="260" height="60"/>
  <text x="1130" y="360">PQ Integrazione ore e economics.xlsx</text>

  <rect class="box down" x="1000" y="420" width="260" height="60"/>
  <text x="1130" y="450">PQ fatturazione T&amp;M new.xlsx</text>

  <rect class="box down" x="1000" y="510" width="260" height="60"/>
  <text x="1130" y="540">Analisi ore file con formule.xlsx</text>

  <rect class="box down" x="1000" y="600" width="260" height="60"/>
  <text x="1130" y="630">R&amp;S dati gestionali.xlsx</text>

  <rect class="box final" x="1320" y="250" width="220" height="84"/>
  <text class="bold" x="1430" y="292">Power BI Dashboard</text>

  <path class="edge" d="M230 350 H300"/>
  <path class="edge" d="M230 360 C260 360, 260 242, 300 242"/>
  <path class="edge" d="M230 370 C260 370, 260 372, 300 372"/>
  <path class="edge" d="M230 380 C260 380, 260 502, 300 502"/>

  <path class="edge" d="M560 112 C605 112, 605 250, 650 250"/>
  <path class="edge" d="M560 242 H650"/>
  <path class="edge" d="M560 372 C605 372, 605 284, 650 284"/>

  <path class="edge" d="M910 240 C955 240, 955 90, 1000 90"/>
  <path class="edge" d="M910 255 C955 255, 955 180, 1000 180"/>
  <path class="edge" d="M1260 180 V240"/>
  <path class="edge" d="M910 267 H1000"/>
  <path class="edge" d="M910 280 C955 280, 955 450, 1000 450"/>
  <path class="edge" d="M910 288 C955 288, 955 540, 1000 540"/>
  <path class="edge" d="M910 296 C955 296, 955 630, 1000 630"/>

  <path class="edge" d="M1260 90 C1290 90, 1290 270, 1320 270"/>
  <path class="edge" d="M910 255 C1115 255, 1115 292, 1320 292"/>
  <path class="edge" d="M560 242 C940 242, 940 314, 1320 314"/>
  <path class="edge" d="M1260 360 C1290 360, 1290 304, 1320 304"/>
  <path class="edge" d="M1260 270 C1290 270, 1290 280, 1320 280"/>
  <path class="edge" d="M560 502 C940 502, 940 324, 1320 324"/>
</svg>
